<svg xmlns="http://www.w3.org/2000/svg" xml:space="preserve" width="500" height="488.10999" viewBox="0 0 499.99999 488.10998"><defs><clipPath id="a" clipPathUnits="userSpaceOnUse"><path d="M0 595.276h841.89V0H0Z"/></clipPath></defs><g clip-path="url(#a)" transform="matrix(1.45772 0 0 -1.45772 -363.27 689.286)"><path d="M0 0v2.79c0 1.6-1.193 2.796-2.394 2.796h-45.9c-1.595 0-2.793-1.196-2.793-2.796V0c0-1.6 1.198-2.8 2.793-2.8h45.9C-1.193-2.8 0-1.6 0 0m-51.087 17.969v-2.797c0-1.596 1.198-2.796 2.793-2.796h45.9c1.201 0 2.394 1.2 2.394 2.796v2.797c0 1.599-1.193 2.793-2.394 2.793h-45.9c-1.595 0-2.793-1.194-2.793-2.793m-1.199-60.701v-3.194c0-1.203 1.199-2.393 2.798-2.393h48.295c1.193 0 2.392 1.19 2.392 2.393v3.194c0 1.592-1.199 2.795-2.392 2.795h-48.295c-1.599 0-2.798-1.203-2.798-2.795m8.784 24.76H-7.58c1.594 0 2.79 1.201 2.79 2.793v2.797c0 1.6-1.196 2.793-2.79 2.793h-35.922c-1.599 0-2.797-1.193-2.797-2.793v-2.797c0-1.592 1.198-2.793 2.797-2.793m33.126 61.498 7.183 5.19 8.385-3.193-2.796 8.386 5.586 7.19H-.797l-5.189 7.185-2.794-8.386-8.379-2.793 7.182-4.792zm-38.317-71.087v-2.789c0-1.6 1.198-2.796 2.795-2.796H-4.79c1.196 0 2.396 1.196 2.396 2.796v2.789c0 1.6-1.2 2.8-2.396 2.8h-41.108c-1.597 0-2.795-1.2-2.795-2.8M-60.666-78.67H9.579c1.597 0 2.793 1.191 2.793 2.394v3.193c0 1.196-1.196 2.796-2.793 2.796h-70.245c-1.196 0-2.395-1.6-2.395-2.796v-3.193c0-1.203 1.199-2.394 2.395-2.394M45.1-14.379l8.385-3.192-2.796 8.382L55.879-2H47.1l-4.793 7.189-2.793-8.388-8.38-2.394 7.186-5.189-.403-8.786zM31.934 23.958l8.376-2.796-2.79 8.389 5.186 6.79h-8.782l-4.786 7.185-2.793-8.388-8.387-2.394 7.187-5.193-.397-8.782zm114.145 20.368v.8c-.4 1.594-1.594 2.79-2.793 3.993-.4 0-.8.397-1.597.397-9.976 3.993-11.175 6.392-13.572 11.583-1.993 3.589-4.786 9.182-11.173 15.571-15.565 15.576-33.927 12.379-41.509 9.986-10.376 5.99-20.356 5.99-27.939 3.593 0 7.987-3.193 17.17-11.973 25.158-.396 7.988-2.793 26.358-22.351 36.34-8.383 4.397-13.969 5.191-18.359 5.591-5.586.799-7.983 1.199-14.769 9.586-.397.4-.8.8-1.196 1.199-1.197.799-1.996 1.196-3.195 1.196l-.4.398H-26.342l-.398-.398h-.8l-.4-.397h-.795l-.8-.4v-.399h-.399c0-.399-.399-.399-.799-.799v-.4c-6.784-8.387-9.58-8.787-15.165-9.586-4.39-.4-9.977-1.194-18.361-5.591-19.555-9.982-21.95-28.352-22.348-36.34-8.782-7.988-11.575-17.171-11.975-25.557-7.584 2.396-17.163 2.396-27.539-3.594-7.585 2.396-25.945 5.59-41.511-9.586-6.386-6.786-9.18-11.982-11.174-15.972-2.395-4.79-3.593-7.589-13.572-11.182-1.995-.8-3.19-1.996-3.99-3.993-.398-.397-.398-.8-.398-1.197v-1.199c-.4-1.2 0-2.397.798-3.594 5.986-9.185 5.588-11.982 4.788-17.571-.798-4.394-1.995-9.983-.4-19.172 3.593-21.561 20.358-29.947 27.54-32.341 5.188-11.185 12.774-16.778 20.755-19.172-4.788-6.789-7.981-15.971-5.588-27.957-4.388-6.386-13.172-22.761-3.193-42.33 3.993-8.383 8.381-12.375 11.574-15.172 3.991-3.993 5.986-5.996 6.387-16.771 0-1.203.399-1.997.797-2.797v-.396l.8-.8c1.595-1.997 4.389-3.2 6.786-2.401 10.775 2.797 13.169 1.601 17.961-.799 3.989-2.393 9.179-4.793 18.359-6.386 21.553-3.597 34.722 9.982 39.513 16.375 11.975 1.594 19.955 7.186 24.743 13.975 4.793-6.789 12.374-12.381 24.746-13.579 4.392-6.385 17.565-19.965 39.117-16.375 9.176 1.197 14.365 4 18.358 5.99 4.79 2.796 7.187 4 17.563 1.203.399 0 1.193-.404 1.596-.404.8 0 1.597.404 2.393.404.397.397.8.397 1.197.397v.397l.8.403.399.396.398.404.399.396.397.404.403.799.397.793v.398c.403.403.403.8.403 1.599.396 10.783 2.394 12.779 6.387 16.375 3.192 3.194 7.579 7.187 11.572 15.576 9.979 19.568 1.2 35.937-3.193 42.33 2.393 11.978-.8 21.168-5.589 27.553 7.982 2.797 15.568 8.383 20.755 19.569 7.185 2.393 23.948 10.783 27.538 31.944 1.596 9.189.403 15.179-.397 19.568-.801 5.193-1.2 7.99 4.39 17.175.403.397.796.797.796 1.197.4.8.4 1.6.4 2.397v.399zm-221.513 62.696c1.994 1.595 2.793 3.593 2.394 5.992 0 .795-1.195 18.37 14.768 26.753 6.385 3.197 10.378 3.596 14.37 4.396 6.385.795 11.574 1.995 18.36 8.782 6.783-6.787 11.973-7.987 18.358-8.782 3.991-.8 7.984-1.199 14.37-4.396 16.365-8.383 14.765-25.958 14.765-26.753-.396-2.399.8-4.397 2.394-5.992 12.375-9.585 9.982-20.766 7.589-25.959C15.169 91.449-4.387 97.837-25.542 97.837c-21.153 0-41.112-6.388-57.475-16.774-2.396 5.593-4.39 16.374 7.583 25.959m-77.032-128.59c-.795 2-2.793 3.596-4.788 3.997-.798.396-17.96 4.389-21.154 22.361-.798 6.789-.398 11.182.4 14.778 1.196 6.789 1.595 11.98-2.393 20.362 7.981 4.396 10.775 8.786 13.568 14.775 1.995 3.597 3.593 7.193 8.781 12.383 12.772 12.778 29.138 5.989 29.933 5.59 1.998-.797 4.392-.401 6.386.8 12.772 8.385 22.351 3.192 26.741-.8-23.946-19.969-39.113-49.916-39.113-83.46 0-9.19 1.198-17.975 3.192-26.358-5.985-.403-16.362 1.597-21.553 15.572m98.186-113.413c-1.994 0-4.39-1.197-5.188-3.194-.4-.8-9.979-15.971-27.939-13.181-6.786 1.203-10.378 3.199-13.968 5.189-5.987 2.796-10.779 4.799-19.958 3.596-1.596 9.182-5.189 13.182-9.979 17.975-2.793 2.79-5.586 5.586-8.78 11.979-8.381 15.972 3.194 29.551 3.591 29.948 1.599 1.996 2.396 4.396 1.599 6.393-3.991 14.379 3.59 21.961 8.38 25.154 15.167-37.934 51.088-65.091 93.793-67.888-1.594-5.586-6.385-15.172-21.551-15.971m28.738 27.951c-53.084 0-96.191 43.129-96.191 96.248 0 53.112 43.107 96.241 96.191 96.241 52.683 0 95.786-43.129 95.786-96.241 0-53.119-43.103-96.248-95.786-96.248m114.945-5.587c-3.193-5.989-5.983-8.785-8.779-11.979-4.793-4.396-8.38-8.389-9.977-17.572-9.182 1.197-13.968-.8-19.958-3.999-3.589-1.594-7.186-3.59-13.969-4.786-17.962-2.797-27.541 12.375-27.938 13.175-1.196 1.6-3.193 3.2-5.59 3.2-14.765.396-19.554 9.982-21.151 15.568 42.304 3.2 78.228 30.754 92.996 68.688 5.191-3.194 13.169-10.782 9.18-25.558-.797-2.393 0-4.793 1.597-6.386.396-.403 11.972-13.982 3.589-30.351M127.32 19.965c.797-3.993 1.2-7.986.401-14.776-3.194-17.971-20.356-22.364-21.156-22.364-1.993-.396-3.986-1.997-4.786-4.393-5.19-14.375-16.369-15.572-22.352-15.175 1.994 8.386 3.193 17.175 3.193 25.961 0 33.544-15.165 63.491-39.117 83.46 4.39 3.595 14.369 9.589 27.541.8 1.997-1.201 4.391-1.201 6.387-.401.799.401 17.162 7.19 29.934-5.989 4.786-4.793 6.786-8.39 8.383-11.98 3.192-5.989 5.982-10.782 13.969-14.778-3.993-8.386-3.593-13.973-2.397-20.365M12.372-85.862h-75.833c-1.595 0-2.793-1.197-2.793-2.394v-3.192c0-1.203 1.198-2.797 2.793-2.797h75.833c1.6 0 2.797 1.594 2.797 2.797v3.192c0 1.197-1.197 2.394-2.797 2.394m-68.646 22.364H5.192c1.594 0 2.79 1.197 2.79 2.394v3.193c0 1.599-1.196 2.803-2.79 2.803h-61.466c-1.199 0-2.396-1.204-2.396-2.803v-3.193c0-1.197 1.197-2.394 2.396-2.394m.794 109.021 8.384 3.193 7.184-5.19-.401 8.787 7.187 4.792-8.382 2.793-2.793 8.386-4.793-7.185h-8.779l5.191-7.19zm-21.153-10.385-2.393 8.388-5.188-7.185h-8.78l5.186-6.79-2.392-8.389 7.98 2.796 7.185-5.189v8.782l6.786 5.193zM-89.801-3.199l-2.795 8.388L-97.387-2h-8.779l5.186-7.189-2.792-8.382 8.383 3.192 7.183-5.189v8.786l6.785 5.189z" style="fill:#db1f26;fill-opacity:1;fill-rule:nonzero;stroke:none" transform="translate(446.128 303.136)"/></g></svg>